<mxfile host="app.diagrams.net" modified="2024-01-18T14:46:50.462Z" agent="Mozilla/5.0 (Windows NT 10.0; Win64; x64) AppleWebKit/537.36 (KHTML, like Gecko) Chrome/120.0.0.0 Safari/537.36" etag="eAcd5R7HZnTrcCdIOJNm" version="22.1.18" type="device">
  <diagram name="Page-1" id="wXKJWHJHW1IuRwQWXABE">
    <mxGraphModel dx="1195" dy="622" grid="1" gridSize="10" guides="1" tooltips="1" connect="1" arrows="1" fold="1" page="1" pageScale="1" pageWidth="827" pageHeight="1169" math="0" shadow="0">
      <root>
        <mxCell id="0" />
        <mxCell id="1" parent="0" />
        <mxCell id="XomJlR_sHJsmUqZ8_PmF-86" value="" style="rounded=0;whiteSpace=wrap;html=1;strokeWidth=1;" vertex="1" parent="1">
          <mxGeometry x="710" y="840" width="160" height="50" as="geometry" />
        </mxCell>
        <mxCell id="XomJlR_sHJsmUqZ8_PmF-87" value="&lt;font style=&quot;font-size: 12px;&quot;&gt;&lt;span style=&quot;&quot;&gt;Destination&lt;/span&gt;&lt;span style=&quot;&quot;&gt;&amp;nbsp;MAC Address&lt;br&gt;r1&lt;br&gt;&lt;/span&gt;&lt;/font&gt;" style="text;html=1;strokeColor=none;fillColor=none;align=center;verticalAlign=middle;whiteSpace=wrap;rounded=0;strokeWidth=1;" vertex="1" parent="1">
          <mxGeometry x="716" y="850" width="148" height="30" as="geometry" />
        </mxCell>
        <mxCell id="XomJlR_sHJsmUqZ8_PmF-88" value="" style="rounded=0;whiteSpace=wrap;html=1;strokeWidth=1;" vertex="1" parent="1">
          <mxGeometry x="1040" y="840" width="120" height="50" as="geometry" />
        </mxCell>
        <mxCell id="XomJlR_sHJsmUqZ8_PmF-89" value="&lt;font style=&quot;&quot;&gt;&lt;font style=&quot;font-size: 12px;&quot;&gt;Type&lt;/font&gt;&lt;br&gt;&lt;/font&gt;" style="text;html=1;strokeColor=none;fillColor=none;align=center;verticalAlign=middle;whiteSpace=wrap;rounded=0;strokeWidth=1;" vertex="1" parent="1">
          <mxGeometry x="1040" y="850" width="120" height="30" as="geometry" />
        </mxCell>
        <mxCell id="XomJlR_sHJsmUqZ8_PmF-90" value="" style="rounded=0;whiteSpace=wrap;html=1;strokeWidth=1;" vertex="1" parent="1">
          <mxGeometry x="870" y="840" width="170" height="50" as="geometry" />
        </mxCell>
        <mxCell id="XomJlR_sHJsmUqZ8_PmF-91" value="&lt;font style=&quot;font-size: 12px;&quot;&gt;&lt;span style=&quot;&quot;&gt;Source MAC Address&lt;br&gt;pc3&lt;br&gt;&lt;/span&gt;&lt;/font&gt;" style="text;html=1;strokeColor=none;fillColor=none;align=center;verticalAlign=middle;whiteSpace=wrap;rounded=0;strokeWidth=1;" vertex="1" parent="1">
          <mxGeometry x="890" y="850" width="141" height="30" as="geometry" />
        </mxCell>
        <mxCell id="XomJlR_sHJsmUqZ8_PmF-92" value="" style="rounded=0;whiteSpace=wrap;html=1;strokeWidth=1;" vertex="1" parent="1">
          <mxGeometry x="1150" y="840" width="170" height="50" as="geometry" />
        </mxCell>
        <mxCell id="XomJlR_sHJsmUqZ8_PmF-93" value="&lt;font style=&quot;font-size: 12px;&quot;&gt;&lt;span style=&quot;border-color: var(--border-color);&quot;&gt;Source MAC Address&lt;br style=&quot;border-color: var(--border-color);&quot;&gt;(93.74.0.1) pc1&lt;/span&gt;&lt;b style=&quot;font-size: 15px;&quot;&gt;&lt;br&gt;&lt;/b&gt;&lt;/font&gt;" style="text;html=1;strokeColor=none;fillColor=none;align=center;verticalAlign=middle;whiteSpace=wrap;rounded=0;strokeWidth=1;" vertex="1" parent="1">
          <mxGeometry x="1160" y="850" width="144" height="30" as="geometry" />
        </mxCell>
        <mxCell id="XomJlR_sHJsmUqZ8_PmF-94" value="" style="rounded=0;whiteSpace=wrap;html=1;strokeWidth=1;" vertex="1" parent="1">
          <mxGeometry x="1320.0000000000002" y="840" width="160" height="50" as="geometry" />
        </mxCell>
        <mxCell id="XomJlR_sHJsmUqZ8_PmF-95" value="&lt;font style=&quot;font-size: 12px;&quot;&gt;&lt;span style=&quot;border-color: var(--border-color);&quot;&gt;&lt;font style=&quot;font-size: 12px;&quot;&gt;Destination&lt;/font&gt;&lt;/span&gt;&lt;span style=&quot;border-color: var(--border-color);&quot;&gt;&amp;nbsp;MAC Address&lt;br style=&quot;border-color: var(--border-color);&quot;&gt;&lt;/span&gt;&lt;span style=&quot;&quot;&gt;(89.53.0.3) pc5&lt;br&gt;&lt;/span&gt;&lt;/font&gt;" style="text;html=1;strokeColor=none;fillColor=none;align=center;verticalAlign=middle;whiteSpace=wrap;rounded=0;strokeWidth=1;" vertex="1" parent="1">
          <mxGeometry x="1320.0000000000002" y="850" width="160" height="30" as="geometry" />
        </mxCell>
      </root>
    </mxGraphModel>
  </diagram>
</mxfile>
